<mxfile host="app.diagrams.net" modified="2021-06-22T15:07:56.692Z" agent="5.0 (Windows NT 10.0; Win64; x64) AppleWebKit/537.36 (KHTML, like Gecko) Chrome/89.0.4389.128 Safari/537.36" etag="DkxCpEYvcJlwctyhDtNE" version="14.7.7" type="github">
  <diagram id="OHW1W8jDQY4yU1F0NqN3" name="第 1 页">
    <mxGraphModel dx="1209" dy="643" grid="1" gridSize="10" guides="1" tooltips="1" connect="1" arrows="1" fold="1" page="1" pageScale="1" pageWidth="827" pageHeight="1169" math="0" shadow="0">
      <root>
        <mxCell id="0" />
        <mxCell id="1" parent="0" />
        <mxCell id="pb5JsIJCONtfOEHYIrjz-7" style="edgeStyle=orthogonalEdgeStyle;rounded=0;orthogonalLoop=1;jettySize=auto;html=1;entryX=0.5;entryY=0;entryDx=0;entryDy=0;" edge="1" parent="1" source="pb5JsIJCONtfOEHYIrjz-1" target="pb5JsIJCONtfOEHYIrjz-6">
          <mxGeometry relative="1" as="geometry" />
        </mxCell>
        <mxCell id="pb5JsIJCONtfOEHYIrjz-1" value="建档待审核ADD_AUDITING" style="rounded=0;whiteSpace=wrap;html=1;" vertex="1" parent="1">
          <mxGeometry x="280" y="80" width="120" height="60" as="geometry" />
        </mxCell>
        <mxCell id="pb5JsIJCONtfOEHYIrjz-2" value="已驳回REJECT" style="rounded=0;whiteSpace=wrap;html=1;" vertex="1" parent="1">
          <mxGeometry x="480" y="400" width="120" height="60" as="geometry" />
        </mxCell>
        <mxCell id="pb5JsIJCONtfOEHYIrjz-25" style="edgeStyle=orthogonalEdgeStyle;rounded=0;orthogonalLoop=1;jettySize=auto;html=1;entryX=0.5;entryY=0;entryDx=0;entryDy=0;" edge="1" parent="1" source="pb5JsIJCONtfOEHYIrjz-3" target="pb5JsIJCONtfOEHYIrjz-24">
          <mxGeometry relative="1" as="geometry" />
        </mxCell>
        <mxCell id="pb5JsIJCONtfOEHYIrjz-3" value="资料更新待审核&lt;br&gt;UPDATE_AUDITING" style="rounded=0;whiteSpace=wrap;html=1;" vertex="1" parent="1">
          <mxGeometry x="50" y="70" width="120" height="60" as="geometry" />
        </mxCell>
        <mxCell id="pb5JsIJCONtfOEHYIrjz-13" style="edgeStyle=orthogonalEdgeStyle;rounded=0;orthogonalLoop=1;jettySize=auto;html=1;entryX=0.5;entryY=0;entryDx=0;entryDy=0;" edge="1" parent="1" source="pb5JsIJCONtfOEHYIrjz-4" target="pb5JsIJCONtfOEHYIrjz-12">
          <mxGeometry relative="1" as="geometry" />
        </mxCell>
        <mxCell id="pb5JsIJCONtfOEHYIrjz-4" value="首营待审核FIRST_MARKET_AUDITING" style="rounded=0;whiteSpace=wrap;html=1;" vertex="1" parent="1">
          <mxGeometry x="280" y="390" width="120" height="60" as="geometry" />
        </mxCell>
        <mxCell id="pb5JsIJCONtfOEHYIrjz-20" style="edgeStyle=orthogonalEdgeStyle;rounded=0;orthogonalLoop=1;jettySize=auto;html=1;entryX=0.5;entryY=0;entryDx=0;entryDy=0;" edge="1" parent="1" source="pb5JsIJCONtfOEHYIrjz-5" target="pb5JsIJCONtfOEHYIrjz-19">
          <mxGeometry relative="1" as="geometry" />
        </mxCell>
        <mxCell id="pb5JsIJCONtfOEHYIrjz-5" value="质量负责人待审核QUALITY_DIRECTER_AUDITING" style="rounded=0;whiteSpace=wrap;html=1;" vertex="1" parent="1">
          <mxGeometry x="280" y="700" width="120" height="60" as="geometry" />
        </mxCell>
        <mxCell id="pb5JsIJCONtfOEHYIrjz-8" style="edgeStyle=orthogonalEdgeStyle;rounded=0;orthogonalLoop=1;jettySize=auto;html=1;entryX=0.5;entryY=0;entryDx=0;entryDy=0;" edge="1" parent="1" source="pb5JsIJCONtfOEHYIrjz-6" target="pb5JsIJCONtfOEHYIrjz-4">
          <mxGeometry relative="1" as="geometry" />
        </mxCell>
        <mxCell id="pb5JsIJCONtfOEHYIrjz-9" value="是" style="edgeLabel;html=1;align=center;verticalAlign=middle;resizable=0;points=[];" vertex="1" connectable="0" parent="pb5JsIJCONtfOEHYIrjz-8">
          <mxGeometry x="-0.697" y="2" relative="1" as="geometry">
            <mxPoint as="offset" />
          </mxGeometry>
        </mxCell>
        <mxCell id="pb5JsIJCONtfOEHYIrjz-10" style="edgeStyle=orthogonalEdgeStyle;rounded=0;orthogonalLoop=1;jettySize=auto;html=1;" edge="1" parent="1" source="pb5JsIJCONtfOEHYIrjz-6" target="pb5JsIJCONtfOEHYIrjz-2">
          <mxGeometry relative="1" as="geometry" />
        </mxCell>
        <mxCell id="pb5JsIJCONtfOEHYIrjz-11" value="否" style="edgeLabel;html=1;align=center;verticalAlign=middle;resizable=0;points=[];" vertex="1" connectable="0" parent="pb5JsIJCONtfOEHYIrjz-10">
          <mxGeometry x="-0.4173" y="1" relative="1" as="geometry">
            <mxPoint as="offset" />
          </mxGeometry>
        </mxCell>
        <mxCell id="pb5JsIJCONtfOEHYIrjz-6" value="审核通过" style="rhombus;whiteSpace=wrap;html=1;" vertex="1" parent="1">
          <mxGeometry x="250" y="200" width="180" height="80" as="geometry" />
        </mxCell>
        <mxCell id="pb5JsIJCONtfOEHYIrjz-14" style="edgeStyle=orthogonalEdgeStyle;rounded=0;orthogonalLoop=1;jettySize=auto;html=1;entryX=0.5;entryY=0;entryDx=0;entryDy=0;" edge="1" parent="1" source="pb5JsIJCONtfOEHYIrjz-12" target="pb5JsIJCONtfOEHYIrjz-5">
          <mxGeometry relative="1" as="geometry" />
        </mxCell>
        <mxCell id="pb5JsIJCONtfOEHYIrjz-15" value="是" style="edgeLabel;html=1;align=center;verticalAlign=middle;resizable=0;points=[];" vertex="1" connectable="0" parent="pb5JsIJCONtfOEHYIrjz-14">
          <mxGeometry x="-0.7067" relative="1" as="geometry">
            <mxPoint as="offset" />
          </mxGeometry>
        </mxCell>
        <mxCell id="pb5JsIJCONtfOEHYIrjz-16" style="edgeStyle=orthogonalEdgeStyle;rounded=0;orthogonalLoop=1;jettySize=auto;html=1;entryX=0.5;entryY=1;entryDx=0;entryDy=0;" edge="1" parent="1" source="pb5JsIJCONtfOEHYIrjz-12" target="pb5JsIJCONtfOEHYIrjz-2">
          <mxGeometry relative="1" as="geometry" />
        </mxCell>
        <mxCell id="pb5JsIJCONtfOEHYIrjz-17" value="否" style="edgeLabel;html=1;align=center;verticalAlign=middle;resizable=0;points=[];" vertex="1" connectable="0" parent="pb5JsIJCONtfOEHYIrjz-16">
          <mxGeometry x="-0.746" relative="1" as="geometry">
            <mxPoint as="offset" />
          </mxGeometry>
        </mxCell>
        <mxCell id="pb5JsIJCONtfOEHYIrjz-12" value="审核通过" style="rhombus;whiteSpace=wrap;html=1;" vertex="1" parent="1">
          <mxGeometry x="250" y="520" width="180" height="80" as="geometry" />
        </mxCell>
        <mxCell id="pb5JsIJCONtfOEHYIrjz-18" value="已核准APPROVED" style="rounded=0;whiteSpace=wrap;html=1;" vertex="1" parent="1">
          <mxGeometry x="280" y="1040" width="120" height="60" as="geometry" />
        </mxCell>
        <mxCell id="pb5JsIJCONtfOEHYIrjz-21" style="edgeStyle=orthogonalEdgeStyle;rounded=0;orthogonalLoop=1;jettySize=auto;html=1;entryX=0.5;entryY=0;entryDx=0;entryDy=0;" edge="1" parent="1" source="pb5JsIJCONtfOEHYIrjz-19" target="pb5JsIJCONtfOEHYIrjz-18">
          <mxGeometry relative="1" as="geometry" />
        </mxCell>
        <mxCell id="pb5JsIJCONtfOEHYIrjz-22" value="是" style="edgeLabel;html=1;align=center;verticalAlign=middle;resizable=0;points=[];" vertex="1" connectable="0" parent="pb5JsIJCONtfOEHYIrjz-21">
          <mxGeometry x="-0.7436" y="1" relative="1" as="geometry">
            <mxPoint as="offset" />
          </mxGeometry>
        </mxCell>
        <mxCell id="pb5JsIJCONtfOEHYIrjz-23" style="edgeStyle=orthogonalEdgeStyle;rounded=0;orthogonalLoop=1;jettySize=auto;html=1;" edge="1" parent="1" source="pb5JsIJCONtfOEHYIrjz-19">
          <mxGeometry relative="1" as="geometry">
            <mxPoint x="540" y="456" as="targetPoint" />
          </mxGeometry>
        </mxCell>
        <mxCell id="pb5JsIJCONtfOEHYIrjz-19" value="审核通过" style="rhombus;whiteSpace=wrap;html=1;" vertex="1" parent="1">
          <mxGeometry x="250" y="830" width="180" height="80" as="geometry" />
        </mxCell>
        <mxCell id="pb5JsIJCONtfOEHYIrjz-26" style="edgeStyle=orthogonalEdgeStyle;rounded=0;orthogonalLoop=1;jettySize=auto;html=1;entryX=0;entryY=0.5;entryDx=0;entryDy=0;exitX=0.5;exitY=1;exitDx=0;exitDy=0;" edge="1" parent="1" source="pb5JsIJCONtfOEHYIrjz-24" target="pb5JsIJCONtfOEHYIrjz-18">
          <mxGeometry relative="1" as="geometry" />
        </mxCell>
        <mxCell id="pb5JsIJCONtfOEHYIrjz-27" value="是" style="edgeLabel;html=1;align=center;verticalAlign=middle;resizable=0;points=[];" vertex="1" connectable="0" parent="pb5JsIJCONtfOEHYIrjz-26">
          <mxGeometry x="-0.8639" y="5" relative="1" as="geometry">
            <mxPoint as="offset" />
          </mxGeometry>
        </mxCell>
        <mxCell id="pb5JsIJCONtfOEHYIrjz-28" style="edgeStyle=orthogonalEdgeStyle;rounded=0;orthogonalLoop=1;jettySize=auto;html=1;" edge="1" parent="1" source="pb5JsIJCONtfOEHYIrjz-24" target="pb5JsIJCONtfOEHYIrjz-2">
          <mxGeometry relative="1" as="geometry" />
        </mxCell>
        <mxCell id="pb5JsIJCONtfOEHYIrjz-29" value="否" style="edgeLabel;html=1;align=center;verticalAlign=middle;resizable=0;points=[];" vertex="1" connectable="0" parent="pb5JsIJCONtfOEHYIrjz-28">
          <mxGeometry x="-0.9173" y="2" relative="1" as="geometry">
            <mxPoint as="offset" />
          </mxGeometry>
        </mxCell>
        <mxCell id="pb5JsIJCONtfOEHYIrjz-24" value="审核通过" style="rhombus;whiteSpace=wrap;html=1;" vertex="1" parent="1">
          <mxGeometry x="20" y="200" width="180" height="80" as="geometry" />
        </mxCell>
      </root>
    </mxGraphModel>
  </diagram>
</mxfile>
